<svg width="71" height="71" viewBox="0 0 71 71" fill="none" xmlns="http://www.w3.org/2000/svg">
<path d="M68.1003 47.8743C64.2538 57.6211 57.5778 64.5876 47.8765 68.248C35.4713 72.9286 23.7014 71.2045 13.2002 63.1191C5.89914 57.4976 1.66562 49.8879 0.401411 40.6734C-1.03311 30.2174 1.34021 20.8002 8.11918 12.6777C14.0258 5.60032 21.6687 1.42457 30.8649 0.291578C40.9438 -0.950172 49.9284 1.78799 57.6926 8.24361C64.4488 13.8612 68.411 21.1632 69.9439 29.7845C71.0399 35.949 70.3654 41.9416 68.1003 47.8743ZM55.534 53.752C61.197 47.2958 63.419 39.8103 62.2695 31.3197C60.5641 18.723 49.9115 8.89314 36.6261 8.00234C29.2535 7.50801 22.6687 9.84681 17.0788 14.6742C6.79483 23.5555 5.07794 38.6506 11.3825 49.0366C17.4432 59.0209 26.4652 63.4695 38.0001 62.6901C44.9501 62.2205 50.7064 58.9977 55.534 53.752Z" fill="#034956"/>
<path d="M22.4471 44.4453C20.3892 42.3872 18.3849 40.4096 16.4103 38.4028C14.6317 36.5951 14.5963 34.3177 16.2816 32.7251C17.9633 31.1358 20.4101 31.2899 22.1485 33.0452C24.2549 35.172 26.4276 37.2343 28.5057 39.3878C29.3852 40.2992 29.9888 40.3128 30.9017 39.39C36.653 33.5774 42.4707 27.8304 48.2277 22.0234C49.213 21.0297 50.2724 20.5483 51.6727 20.5788C53.418 20.6168 54.5695 21.4401 55.1694 23.0011C55.7384 24.4816 55.5738 25.8489 54.366 27.0494C47.0442 34.3279 39.7488 41.6328 32.4333 48.9177C30.7235 50.6204 28.7274 50.6362 26.9796 48.9583C25.4646 47.5038 24.0003 45.9967 22.4471 44.4453Z" fill="#F26722"/>
</svg>
