<svg width="27" height="27" viewBox="0 0 27 27" fill="none" xmlns="http://www.w3.org/2000/svg">
<path d="M24.75 13.5C24.75 19.7132 19.7132 24.75 13.5 24.75C7.2868 24.75 2.25 19.7132 2.25 13.5C2.25 7.2868 7.2868 2.25 13.5 2.25C19.7132 2.25 24.75 7.2868 24.75 13.5Z" fill="#F26722"/>
<path fill-rule="evenodd" clip-rule="evenodd" d="M13.5 8.15625C13.966 8.15625 14.3438 8.53401 14.3438 9V13.1505L16.9091 15.7159C17.2386 16.0454 17.2386 16.5796 16.9091 16.9091C16.5796 17.2386 16.0454 17.2386 15.7159 16.9091L12.9034 14.0966C12.7451 13.9384 12.6562 13.7238 12.6562 13.5V9C12.6562 8.53401 13.034 8.15625 13.5 8.15625Z" fill="white"/>
</svg>
