<svg width="73" height="73" viewBox="0 0 73 73" fill="none" xmlns="http://www.w3.org/2000/svg">
<g clip-path="url(#clip0_33_588)">
<path d="M67.2969 0H5.70312C2.55215 0 0 2.55215 0 5.70312V67.2969C0 70.4479 2.55215 73 5.70312 73H67.2969C70.4479 73 73 70.4479 73 67.2969V5.70312C73 2.55215 70.4479 0 67.2969 0ZM44.5557 30.3121L44.1422 35.7729H38.5389V54.7357H31.467V35.7729H27.6887V30.3121H31.467V26.6479C31.467 25.0367 31.5098 22.5416 32.6789 20.9875C33.9193 19.3479 35.616 18.2357 38.5389 18.2357C43.301 18.2357 45.2971 18.9201 45.2971 18.9201L44.3561 24.5092C44.3561 24.5092 42.7877 24.0529 41.3191 24.0529C39.8506 24.0529 38.5389 24.5805 38.5389 26.049V30.3121H44.5557Z" fill="#F26722"/>
</g>
<defs>
<clipPath id="clip0_33_588">
<rect width="73" height="73" fill="white"/>
</clipPath>
</defs>
</svg>
