<svg width="24" height="24" viewBox="0 0 24 24" fill="none" xmlns="http://www.w3.org/2000/svg">
<path d="M2.53399 17H0L4.2909 8H7.50062L8.91966 17H6.38566L5.541 10.4785H5.47343L2.53399 17ZM2.63535 13.4492H7.39926L7.09518 15.2773H2.33127L2.63535 13.4492Z" fill="#CCD1D2"/>
<path d="M8.44449 17L9.88042 8H13.6307C14.2896 8 14.8287 8.09229 15.2483 8.27686C15.6706 8.46143 15.969 8.72217 16.1436 9.05908C16.321 9.396 16.3731 9.79297 16.2999 10.25C16.2436 10.5781 16.1225 10.8784 15.9367 11.1509C15.7537 11.4204 15.5214 11.6489 15.2398 11.8364C14.9611 12.021 14.65 12.1484 14.3065 12.2187L14.2896 12.3066C14.6612 12.3184 14.985 12.415 15.2609 12.5967C15.5369 12.7754 15.7396 13.0244 15.8691 13.3438C15.9986 13.6602 16.0296 14.0293 15.962 14.4512C15.8832 14.9434 15.6903 15.3813 15.3834 15.7651C15.0765 16.1489 14.6781 16.4507 14.1882 16.6704C13.6983 16.8901 13.1408 17 12.5158 17H8.44449ZM11.1136 15.0488H12.2117C12.6002 15.0488 12.9057 14.9712 13.1282 14.8159C13.3534 14.6606 13.4871 14.4336 13.5294 14.1348C13.5632 13.9238 13.5463 13.7451 13.4787 13.5986C13.4111 13.4521 13.2971 13.3408 13.1366 13.2646C12.9761 13.1885 12.7748 13.1504 12.5327 13.1504H11.4008L11.1136 15.0488ZM11.6542 11.6387H12.6171C12.8199 11.6387 13.0057 11.605 13.1746 11.5376C13.3435 11.4702 13.4829 11.3721 13.5927 11.2432C13.7025 11.1143 13.7715 10.959 13.7997 10.7773C13.8419 10.4961 13.7771 10.2822 13.6054 10.1357C13.4365 9.98926 13.2084 9.91602 12.9212 9.91602H11.9245L11.6542 11.6387Z" fill="#CCD1D2"/>
<path d="M24 8L22.5641 17H20.6044L18.2394 12.2715H18.1887L17.4285 17H15.0803L16.5163 8H18.5097L20.841 12.7109H20.9085L21.6518 8H24Z" fill="#CCD1D2"/>
</svg>
