<svg width="24" height="24" viewBox="0 0 24 24" fill="none" xmlns="http://www.w3.org/2000/svg">
<path d="M11.0376 5.31617L11.6866 6.4791C12.2723 7.52858 12.0372 8.90533 11.1147 9.8278C11.1147 9.8278 9.99578 10.9467 12.0245 12.9755C14.0532 15.0042 15.1722 13.8853 15.1722 13.8853C16.0947 12.9628 17.4714 12.7277 18.5209 13.3134L19.6838 13.9624C21.2686 14.8468 21.4557 17.0692 20.0628 18.4622C19.2258 19.2992 18.2004 19.9505 17.0669 19.9934C15.1588 20.0658 11.9183 19.5829 8.6677 16.3323C5.41713 13.0817 4.93421 9.84122 5.00655 7.93309C5.04952 6.7996 5.7008 5.77423 6.53781 4.93723C7.93076 3.54428 10.1532 3.73144 11.0376 5.31617Z" fill="#CCD1D2"/>
</svg>
