<svg width="19" height="19" viewBox="0 0 19 19" fill="none" xmlns="http://www.w3.org/2000/svg">
<g clip-path="url(#clip0_28_274)">
<path d="M17.5156 0H1.48438C0.664258 0 0 0.664258 0 1.48438V17.5156C0 18.3357 0.664258 19 1.48438 19H17.5156C18.3357 19 19 18.3357 19 17.5156V1.48438C19 0.664258 18.3357 0 17.5156 0ZM11.5967 7.88945L11.4891 9.31074H10.0307V14.2463H8.19004V9.31074H7.20664V7.88945H8.19004V6.93574C8.19004 6.51641 8.20117 5.86699 8.50547 5.4625C8.82832 5.03574 9.26992 4.74629 10.0307 4.74629C11.2701 4.74629 11.7896 4.92441 11.7896 4.92441L11.5447 6.3791C11.5447 6.3791 11.1365 6.26035 10.7543 6.26035C10.3721 6.26035 10.0307 6.39766 10.0307 6.77988V7.88945H11.5967Z" fill="#CCD1D2"/>
</g>
<defs>
<clipPath id="clip0_28_274">
<rect width="19" height="19" fill="white"/>
</clipPath>
</defs>
</svg>
