<svg width="73" height="73" viewBox="0 0 73 73" fill="none" xmlns="http://www.w3.org/2000/svg">
<g clip-path="url(#clip0_33_598)">
<path d="M36.5 42.9145C40.0359 42.9145 42.9302 40.0344 42.9302 36.4842C42.9302 35.087 42.474 33.7895 41.7183 32.7344C40.5492 31.1233 38.6529 30.054 36.5142 30.054C34.3755 30.054 32.4793 31.109 31.3101 32.7344C30.5544 33.7895 30.0982 35.087 30.0982 36.4842C30.0839 40.0344 32.964 42.9145 36.5 42.9145Z" fill="#F26722"/>
<path d="M50.5297 28.6439V23.2545V22.4561H49.7312L44.3418 22.4703L44.3703 28.6582L50.5297 28.6439Z" fill="#F26722"/>
<path d="M67.2969 0H5.70312C2.55215 0 0 2.55215 0 5.70312V67.2969C0 70.4479 2.55215 73 5.70312 73H67.2969C70.4479 73 73 70.4479 73 67.2969V5.70312C73 2.55215 70.4479 0 67.2969 0ZM54.75 32.7502V47.6924C54.75 51.5848 51.5848 54.75 47.6924 54.75H25.3076C21.4152 54.75 18.25 51.5848 18.25 47.6924V32.7502V25.2934C18.25 21.401 21.4152 18.2357 25.3076 18.2357H47.6924C51.5848 18.2357 54.75 21.401 54.75 25.2934V32.7502Z" fill="#F26722"/>
<path d="M46.4805 36.5015C46.4805 42.005 42.0035 46.482 36.5 46.482C30.9965 46.482 26.5195 42.005 26.5195 36.5015C26.5195 35.1755 26.7904 33.9066 27.2609 32.7517H21.8145V47.6939C21.8145 49.6187 23.3828 51.1871 25.3076 51.1871H47.6924C49.6172 51.1871 51.1855 49.6187 51.1855 47.6939V32.7517H45.7391C46.2238 33.9066 46.4805 35.1755 46.4805 36.5015Z" fill="#F26722"/>
</g>
<defs>
<clipPath id="clip0_33_598">
<rect width="73" height="73" fill="white"/>
</clipPath>
</defs>
</svg>
