<svg width="19" height="19" viewBox="0 0 19 19" fill="none" xmlns="http://www.w3.org/2000/svg">
<g clip-path="url(#clip0_28_268)">
<path d="M9.49996 11.1695C10.4203 11.1695 11.1736 10.4199 11.1736 9.4959C11.1736 9.13223 11.0548 8.79453 10.8582 8.51992C10.5539 8.10059 10.0603 7.82227 9.50368 7.82227C8.94704 7.82227 8.45348 8.09688 8.14918 8.51992C7.9525 8.79453 7.83375 9.13223 7.83375 9.4959C7.83004 10.4199 8.57965 11.1695 9.49996 11.1695Z" fill="#CCD1D2"/>
<path d="M13.1516 7.45527V6.05254V5.84473H12.9438L11.541 5.84844L11.5484 7.45898L13.1516 7.45527Z" fill="#CCD1D2"/>
<path d="M17.5156 0H1.48438C0.664258 0 0 0.664258 0 1.48438V17.5156C0 18.3357 0.664258 19 1.48438 19H17.5156C18.3357 19 19 18.3357 19 17.5156V1.48438C19 0.664258 18.3357 0 17.5156 0ZM14.25 8.52402V12.4131C14.25 13.4262 13.4262 14.25 12.4131 14.25H6.58691C5.57383 14.25 4.75 13.4262 4.75 12.4131V8.52402V6.5832C4.75 5.57012 5.57383 4.74629 6.58691 4.74629H12.4131C13.4262 4.74629 14.25 5.57012 14.25 6.5832V8.52402Z" fill="#CCD1D2"/>
<path d="M12.0977 9.50039C12.0977 10.9328 10.9324 12.098 9.5 12.098C8.06758 12.098 6.90234 10.9328 6.90234 9.50039C6.90234 9.15527 6.97285 8.825 7.09531 8.52441H5.67773V12.4135C5.67773 12.9145 6.08594 13.3227 6.58691 13.3227H12.4131C12.9141 13.3227 13.3223 12.9145 13.3223 12.4135V8.52441H11.9047C12.0309 8.825 12.0977 9.15527 12.0977 9.50039Z" fill="#CCD1D2"/>
</g>
<defs>
<clipPath id="clip0_28_268">
<rect width="19" height="19" fill="white"/>
</clipPath>
</defs>
</svg>
