<svg width="30" height="30" viewBox="0 0 30 30" fill="none" xmlns="http://www.w3.org/2000/svg">
<path fill-rule="evenodd" clip-rule="evenodd" d="M5.3125 10.6433C5.3125 5.5658 9.71433 1.5625 15 1.5625C20.2857 1.5625 24.6875 5.5658 24.6875 10.6433C24.6875 15.4072 21.7339 21.0001 16.9685 23.0365C15.7174 23.5712 14.2826 23.5712 13.0315 23.0365C8.26611 21.0001 5.3125 15.4072 5.3125 10.6433ZM15 3.4375C10.6207 3.4375 7.1875 6.72595 7.1875 10.6433C7.1875 14.8037 9.81929 19.6248 13.7683 21.3124C14.5488 21.6459 15.4512 21.6459 16.2317 21.3124C20.1807 19.6248 22.8125 14.8037 22.8125 10.6433C22.8125 6.72595 19.3793 3.4375 15 3.4375ZM15 9.6875C14.1371 9.6875 13.4375 10.3871 13.4375 11.25C13.4375 12.1129 14.1371 12.8125 15 12.8125C15.8629 12.8125 16.5625 12.1129 16.5625 11.25C16.5625 10.3871 15.8629 9.6875 15 9.6875ZM11.5625 11.25C11.5625 9.35152 13.1015 7.8125 15 7.8125C16.8985 7.8125 18.4375 9.35152 18.4375 11.25C18.4375 13.1485 16.8985 14.6875 15 14.6875C13.1015 14.6875 11.5625 13.1485 11.5625 11.25ZM4.49426 18.7457C4.8418 19.1295 4.8124 19.7224 4.4286 20.0699C3.71898 20.7125 3.4375 21.3276 3.4375 21.875C3.4375 22.8296 4.34251 24.006 6.54588 24.9975C8.66125 25.9495 11.6494 26.5625 15 26.5625C18.3506 26.5625 21.3387 25.9495 23.4541 24.9975C25.6575 24.006 26.5625 22.8296 26.5625 21.875C26.5625 21.3276 26.281 20.7125 25.5714 20.0699C25.1876 19.7224 25.1582 19.1295 25.5057 18.7457C25.8533 18.3619 26.4461 18.3325 26.8299 18.6801C27.7837 19.5437 28.4375 20.6264 28.4375 21.875C28.4375 24.027 26.5443 25.6631 24.2236 26.7074C21.8148 27.7913 18.553 28.4375 15 28.4375C11.447 28.4375 8.18519 27.7913 5.77645 26.7074C3.45571 25.6631 1.5625 24.027 1.5625 21.875C1.5625 20.6264 2.21631 19.5437 3.17007 18.6801C3.55387 18.3325 4.14673 18.3619 4.49426 18.7457Z" fill="#F26722"/>
</svg>
