<svg width="278" height="278" viewBox="0 0 278 278" fill="none" xmlns="http://www.w3.org/2000/svg">
<circle cx="139" cy="139" r="137.5" fill="#F26722" stroke="#F26722" stroke-width="3"/>
<path d="M153.218 138.998C151.116 135.612 150.332 135.612 143.487 135.612C136.641 135.612 137.632 135.486 127.049 135.612C124.899 135.638 123.567 137.304 122.554 138.998C117.692 147.119 112.765 155.202 107.928 163.338C106.61 165.555 105.043 166.89 102.263 166.691C98.3676 166.413 96.8808 164.062 98.8751 160.669C102.629 154.282 106.525 147.98 110.347 141.633C114.7 134.406 119.062 127.184 123.368 119.928C125.156 116.917 124.556 115.73 121.12 115.717C111.182 115.678 101.244 115.793 91.3059 115.766C89.0839 115.76 88.0397 117.11 87.0332 118.74C78.0604 133.27 69.0671 147.788 60.0932 162.318C57.5992 166.356 52.5741 168.086 48.2299 166.351C46.0405 165.477 45.1773 163.261 46.42 161.029C48.0703 158.066 49.927 155.217 51.7114 152.33C68.8562 124.584 86.0264 96.8549 103.12 69.078C104.99 66.0392 107.372 64.7033 110.935 64.7195C130.299 64.8078 149.664 64.8171 169.028 64.709C172.717 64.6884 175.127 66.01 177.065 69.1897C181.507 76.4801 186.217 83.6065 190.873 90.7635C191.503 91.7321 191.812 93.1011 193.615 93.4499C194.151 89.9435 193.803 86.4756 193.847 83.0389C193.923 77.1294 194.775 76.1985 200.559 76.1434C202.71 76.1229 204.862 76.1069 207.014 76.137C211.732 76.2029 212.609 77.0696 212.614 81.7366C212.629 96.2719 212.712 110.808 212.569 125.342C212.534 128.911 213.392 131.876 215.364 134.843C220.774 142.98 225.943 151.28 231.175 159.536C232.142 161.063 233.545 162.56 232.523 164.613C231.45 166.77 229.431 166.645 227.454 166.644C210.036 166.633 192.617 166.571 175.201 166.699C171.928 166.723 169.856 165.589 168.194 162.804C164.24 156.179 157.406 145.742 153.218 138.998ZM105.368 89.2068C102.846 93.3312 100.272 97.4245 97.8232 101.592C96.4325 103.959 97.177 105.51 99.8349 105.54C109.053 105.642 118.274 105.647 127.492 105.554C130.361 105.525 131.155 103.985 129.648 101.506C125.322 94.3854 120.943 87.2957 116.468 80.2686C114.645 77.4047 112.685 77.5074 110.791 80.4231C108.998 83.1821 107.334 86.025 105.368 89.2068ZM132.646 128.511C135.496 128.558 138.977 128.57 141.826 128.511C144.368 128.458 145.077 126.848 143.809 124.678C142.417 122.295 140.965 119.939 139.416 117.657C137.469 114.789 135.816 114.884 133.876 117.886C132.6 119.862 131.357 121.859 130.14 123.872C129.469 124.982 128.391 126.114 129.321 127.503C130.154 128.747 131.499 128.492 132.646 128.511Z" fill="white"/>
<path d="M45.8481 206.845L54.5925 183.314H59.0135L68.0504 206.845H65.5149L57.0956 184.861L58.4284 185.538H55.0151L56.4129 184.861L48.3187 206.845H45.8481ZM50.5292 199.366L51.3418 197.142H62.3617L63.2069 199.366H50.5292Z" fill="white"/>
<path d="M72.2771 213.291V189.793H74.2275V197.11L73.6424 197.174C73.7291 195.455 74.0975 194.005 74.7476 192.823C75.4195 191.641 76.3188 190.749 77.4457 190.148C78.5943 189.524 79.8729 189.213 81.2816 189.213C82.5385 189.213 83.6762 189.46 84.6948 189.954C85.735 190.427 86.6127 191.082 87.3279 191.92C88.0647 192.737 88.6173 193.683 88.9857 194.757C89.3758 195.81 89.5708 196.917 89.5708 198.077V198.528C89.5708 199.689 89.3758 200.806 88.9857 201.881C88.5956 202.934 88.0322 203.879 87.2954 204.717C86.5802 205.534 85.7025 206.189 84.6623 206.683C83.6437 207.156 82.4951 207.393 81.2165 207.393C79.8512 207.393 78.5943 207.092 77.4457 206.49C76.3188 205.867 75.3978 204.954 74.6826 203.75C73.9891 202.547 73.6099 201.064 73.5449 199.302L74.7151 201.719V213.291H72.2771ZM80.8915 205.265C82.1917 205.265 83.3078 204.964 84.2397 204.363C85.1716 203.739 85.8867 202.901 86.3852 201.848C86.8836 200.774 87.1328 199.592 87.1328 198.303C87.1328 196.97 86.8728 195.788 86.3526 194.757C85.8542 193.704 85.1391 192.877 84.2072 192.275C83.2753 191.652 82.1701 191.34 80.8915 191.34C79.7212 191.34 78.6593 191.598 77.7058 192.114C76.7522 192.63 75.9937 193.36 75.4303 194.306C74.8885 195.23 74.6176 196.326 74.6176 197.594V199.173C74.6176 200.376 74.8885 201.44 75.4303 202.364C75.9937 203.267 76.7522 203.976 77.7058 204.492C78.6593 205.007 79.7212 205.265 80.8915 205.265Z" fill="white"/>
<path d="M101.683 207.393C100.209 207.393 98.9305 207.145 97.8469 206.651C96.7634 206.135 95.8748 205.459 95.1814 204.62C94.4879 203.761 93.9678 202.805 93.621 201.752C93.2959 200.699 93.1334 199.613 93.1334 198.496V198.045C93.1334 196.949 93.2959 195.874 93.621 194.821C93.9678 193.768 94.4879 192.823 95.1814 191.985C95.8748 191.147 96.7417 190.481 97.7819 189.986C98.8438 189.471 100.079 189.213 101.488 189.213C103.286 189.213 104.782 189.61 105.974 190.405C107.187 191.201 108.097 192.221 108.704 193.468C109.311 194.693 109.614 196.014 109.614 197.432V198.689H94.2386V196.82H107.924L107.306 197.755C107.306 196.487 107.079 195.38 106.624 194.435C106.19 193.468 105.54 192.716 104.673 192.178C103.828 191.62 102.766 191.34 101.488 191.34C100.144 191.34 99.028 191.652 98.1395 192.275C97.251 192.898 96.5791 193.726 96.1241 194.757C95.6906 195.788 95.4739 196.96 95.4739 198.27C95.4739 199.56 95.6906 200.742 96.1241 201.816C96.5791 202.869 97.2618 203.707 98.172 204.33C99.1039 204.954 100.274 205.265 101.683 205.265C103.178 205.265 104.392 204.932 105.324 204.266C106.255 203.578 106.83 202.772 107.046 201.848H109.322C109.105 202.987 108.65 203.976 107.957 204.814C107.263 205.63 106.385 206.264 105.324 206.716C104.262 207.167 103.048 207.393 101.683 207.393Z" fill="white"/>
<path d="M112.163 206.845L118.534 197.851V198.496L112.553 189.793H115.219L119.77 196.498H120.225L124.548 189.793H127.051L121.427 198.238V197.626L128.124 206.845H125.458L120.192 199.592H119.77L114.666 206.845H112.163Z" fill="white"/>
<path d="M137.56 206.845L146.304 183.314H150.725L159.762 206.845H157.227L148.807 184.861L150.14 185.538H146.727L148.125 184.861L140.03 206.845H137.56ZM142.241 199.366L143.054 197.142H154.073L154.919 199.366H142.241Z" fill="white"/>
<path d="M170.071 207.038C168.879 207.038 167.85 206.866 166.983 206.522C166.116 206.178 165.445 205.598 164.968 204.782C164.491 203.944 164.253 202.826 164.253 201.429V184.41H166.593V201.784C166.593 202.772 166.864 203.535 167.406 204.072C167.948 204.588 168.717 204.846 169.714 204.846H172.802V207.038H170.071ZM161.164 191.63V189.793H172.802V191.63H161.164Z" fill="white"/>
<path d="M183.754 207.038C182.562 207.038 181.532 206.866 180.665 206.522C179.799 206.178 179.127 205.598 178.65 204.782C178.173 203.944 177.935 202.826 177.935 201.429V184.41H180.275V201.784C180.275 202.772 180.546 203.535 181.088 204.072C181.63 204.588 182.399 204.846 183.396 204.846H186.484V207.038H183.754ZM174.847 191.63V189.793H186.484V191.63H174.847Z" fill="white"/>
<path d="M192.105 206.845V189.793H194.51V206.845H192.105ZM189.341 191.727V189.793H194.51V191.727H189.341ZM192.625 186.634C192.04 186.634 191.595 186.484 191.292 186.183C191.01 185.861 190.869 185.463 190.869 184.99C190.869 184.517 191.01 184.131 191.292 183.83C191.595 183.507 192.04 183.346 192.625 183.346C193.21 183.346 193.643 183.507 193.925 183.83C194.207 184.131 194.348 184.517 194.348 184.99C194.348 185.463 194.207 185.861 193.925 186.183C193.643 186.484 193.21 186.634 192.625 186.634Z" fill="white"/>
<path d="M208.157 207.393C206.705 207.393 205.438 207.145 204.354 206.651C203.292 206.135 202.404 205.448 201.689 204.588C200.973 203.707 200.432 202.74 200.063 201.687C199.716 200.634 199.543 199.571 199.543 198.496V198.045C199.543 196.949 199.716 195.885 200.063 194.854C200.432 193.801 200.973 192.855 201.689 192.017C202.404 191.158 203.292 190.481 204.354 189.986C205.438 189.471 206.684 189.213 208.092 189.213C209.523 189.213 210.791 189.471 211.896 189.986C213.023 190.502 213.933 191.233 214.626 192.178C215.32 193.124 215.732 194.241 215.862 195.531H213.521C213.326 194.349 212.763 193.371 211.831 192.597C210.921 191.802 209.674 191.405 208.092 191.405C206.727 191.405 205.589 191.716 204.679 192.339C203.791 192.941 203.119 193.768 202.664 194.821C202.209 195.853 201.981 197.003 201.981 198.27C201.981 199.517 202.209 200.677 202.664 201.752C203.119 202.805 203.802 203.653 204.712 204.298C205.622 204.921 206.77 205.233 208.157 205.233C209.219 205.233 210.14 205.05 210.921 204.685C211.722 204.298 212.362 203.782 212.838 203.138C213.337 202.493 213.629 201.784 213.716 201.01H216.057C215.97 202.3 215.558 203.428 214.821 204.395C214.106 205.34 213.174 206.082 212.026 206.619C210.877 207.135 209.588 207.393 208.157 207.393Z" fill="white"/>
<path d="M225.956 207.328C223.745 207.328 222.044 206.855 220.852 205.91C219.66 204.943 219.053 203.653 219.032 202.042H221.307C221.35 202.858 221.719 203.6 222.412 204.266C223.127 204.932 224.309 205.265 225.956 205.265C227.494 205.265 228.643 204.954 229.401 204.33C230.181 203.686 230.572 202.912 230.572 202.01C230.572 201.171 230.246 200.527 229.596 200.076C228.968 199.603 228.047 199.302 226.833 199.173L224.883 198.98C223.322 198.808 222.055 198.335 221.079 197.561C220.126 196.766 219.649 195.681 219.649 194.306C219.649 193.296 219.909 192.415 220.429 191.663C220.949 190.91 221.675 190.33 222.607 189.922C223.561 189.492 224.677 189.277 225.956 189.277C227.798 189.277 229.293 189.707 230.442 190.567C231.612 191.426 232.208 192.651 232.229 194.241H229.954C229.932 193.425 229.585 192.737 228.914 192.178C228.242 191.62 227.256 191.34 225.956 191.34C224.612 191.34 223.604 191.63 222.932 192.211C222.282 192.791 221.957 193.5 221.957 194.338C221.957 195.047 222.206 195.638 222.705 196.111C223.203 196.562 223.983 196.841 225.045 196.949L226.996 197.142C228.729 197.336 230.138 197.83 231.222 198.625C232.327 199.42 232.88 200.559 232.88 202.042C232.88 203.052 232.587 203.965 232.002 204.782C231.438 205.577 230.637 206.2 229.596 206.651C228.556 207.102 227.343 207.328 225.956 207.328Z" fill="white"/>
</svg>
