<svg width="158" height="127" viewBox="0 0 158 127" fill="none" xmlns="http://www.w3.org/2000/svg">
<path d="M90.7037 64.1278C88.9277 61.2054 88.2654 61.2054 82.4827 61.2054C76.7 61.2054 77.537 61.0963 68.5967 61.2054C66.7805 61.2276 65.6556 62.666 64.7991 64.1278C60.6918 71.1385 56.5296 78.1153 52.4434 85.1389C51.3303 87.0522 50.0062 88.2045 47.658 88.0332C44.3673 87.7933 43.1113 85.7639 44.796 82.8346C47.9669 77.3212 51.2581 71.8811 54.4869 66.4029C58.1642 60.1639 61.8493 53.9297 65.4874 47.6667C66.9975 45.0672 66.4904 44.0427 63.5884 44.0311C55.193 43.9977 46.7972 44.0972 38.4017 44.0739C36.5247 44.0687 35.6425 45.2334 34.7922 46.6405C27.2122 59.1837 19.6149 71.7158 12.0339 84.2583C9.92699 87.7441 5.68192 89.2371 2.01208 87.74C0.162458 86.9854 -0.566683 85.0724 0.483097 83.1459C1.87726 80.5874 3.44576 78.1288 4.95318 75.6361C19.4367 51.6859 33.9417 27.7492 48.3823 3.77162C49.9621 1.14845 51.9739 -0.0046933 54.9842 0.00933048C71.3426 0.085551 87.7017 0.0935363 104.06 0.000204237C107.176 -0.0175673 109.212 1.1233 110.849 3.86804C114.602 10.1612 118.581 16.3129 122.514 22.491C123.046 23.3271 123.307 24.5088 124.83 24.8099C125.283 21.7831 124.989 18.7896 125.026 15.823C125.09 10.7218 125.81 9.91821 130.696 9.87062C132.514 9.85292 134.332 9.8391 136.149 9.86506C140.135 9.92202 140.875 10.6701 140.88 14.6988C140.893 27.246 140.963 39.7939 140.842 52.3398C140.813 55.4203 141.537 57.9801 143.203 60.5411C147.773 67.5655 152.14 74.7299 156.56 81.8568C157.377 83.1749 158.562 84.4669 157.699 86.2391C156.793 88.1016 155.087 87.9935 153.416 87.9924C138.702 87.9829 123.987 87.9291 109.274 88.0399C106.51 88.0607 104.759 87.0815 103.355 84.6778C100.015 78.9587 94.2419 69.9499 90.7037 64.1278ZM50.2809 21.1472C48.1507 24.7075 45.9761 28.2409 43.9074 31.8385C42.7326 33.8817 43.3614 35.2205 45.6068 35.246C53.3942 35.3342 61.1835 35.3389 68.9709 35.2582C71.3946 35.233 72.0651 33.9042 70.7925 31.764C67.1376 25.6175 63.4382 19.4975 59.6584 13.4316C58.1179 10.9594 56.4624 11.0481 54.8622 13.5649C53.348 15.9466 51.9416 18.4006 50.2809 21.1472ZM73.8266 54.756C76.2345 54.7834 78.6437 54.8712 81.05 54.8202C83.1978 54.7748 83.8261 53.6396 82.7552 51.7666C81.5788 49.7092 80.3529 47.6761 79.044 45.7059C77.3995 43.2306 76.0027 43.3122 74.3642 45.9038C73.2861 47.609 72.2359 49.3336 71.2077 51.0711C70.6409 52.029 69.7306 53.0065 70.516 54.205C71.2199 55.279 72.3783 54.8188 73.8266 54.756Z" fill="white"/>
<path d="M0 121.208L7.38707 101.161H11.1218L18.756 121.208H16.614L9.50158 102.479L10.6275 103.056H7.74406L8.92489 102.479L2.08705 121.208H0ZM3.95441 114.837L4.64094 112.942H13.9503L14.6643 114.837H3.95441Z" fill="white"/>
<path d="M22.3266 126.7V106.681H23.9743V112.915L23.48 112.969C23.5532 111.505 23.8644 110.269 24.4137 109.262C24.9812 108.255 25.7409 107.496 26.6929 106.983C27.6632 106.452 28.7434 106.187 29.9334 106.187C30.9952 106.187 31.9563 106.397 32.8168 106.818C33.6955 107.221 34.437 107.779 35.0411 108.493C35.6636 109.189 36.1304 109.994 36.4417 110.91C36.7712 111.807 36.936 112.75 36.936 113.738V114.123C36.936 115.111 36.7712 116.063 36.4417 116.979C36.1121 117.876 35.6361 118.681 35.0137 119.395C34.4095 120.091 33.6681 120.649 32.7893 121.071C31.9289 121.473 30.9586 121.675 29.8784 121.675C28.7251 121.675 27.6632 121.418 26.6929 120.906C25.7409 120.375 24.9629 119.597 24.3587 118.572C23.7729 117.546 23.4525 116.283 23.3976 114.782L24.3862 116.841V126.7H22.3266ZM29.6038 119.862C30.7023 119.862 31.6451 119.606 32.4323 119.093C33.2196 118.562 33.8237 117.848 34.2448 116.951C34.6658 116.036 34.8764 115.029 34.8764 113.931C34.8764 112.796 34.6567 111.789 34.2173 110.91C33.7962 110.013 33.1921 109.308 32.4049 108.795C31.6176 108.264 30.684 107.999 29.6038 107.999C28.6152 107.999 27.7182 108.219 26.9126 108.658C26.1071 109.097 25.4663 109.72 24.9903 110.525C24.5327 111.313 24.3038 112.246 24.3038 113.326V114.672C24.3038 115.697 24.5327 116.603 24.9903 117.391C25.4663 118.16 26.1071 118.764 26.9126 119.203C27.7182 119.643 28.6152 119.862 29.6038 119.862Z" fill="white"/>
<path d="M47.1678 121.675C45.9229 121.675 44.8428 121.464 43.9274 121.043C43.0121 120.604 42.2614 120.027 41.6756 119.313C41.0898 118.581 40.6504 117.766 40.3575 116.869C40.0829 115.972 39.9455 115.047 39.9455 114.095V113.711C39.9455 112.777 40.0829 111.862 40.3575 110.965C40.6504 110.068 41.0898 109.262 41.6756 108.548C42.2614 107.834 42.9937 107.267 43.8725 106.846C44.7696 106.406 45.8131 106.187 47.0031 106.187C48.5226 106.187 49.7858 106.525 50.7927 107.203C51.8179 107.88 52.5869 108.75 53.0995 109.811C53.6121 110.855 53.8684 111.981 53.8684 113.189V114.26H40.8792V112.667H52.4404L51.9186 113.464C51.9186 112.384 51.7264 111.441 51.3419 110.635C50.9758 109.811 50.4266 109.171 49.6943 108.713C48.9803 108.237 48.0832 107.999 47.0031 107.999C45.868 107.999 44.9252 108.264 44.1746 108.795C43.424 109.326 42.8564 110.031 42.472 110.91C42.1058 111.789 41.9228 112.786 41.9228 113.903C41.9228 115.002 42.1058 116.008 42.472 116.924C42.8564 117.821 43.4331 118.535 44.202 119.066C44.9893 119.597 45.9779 119.862 47.1678 119.862C48.4311 119.862 49.4563 119.578 50.2435 119.011C51.0307 118.425 51.5159 117.739 51.6989 116.951H53.6212C53.4382 117.922 53.0537 118.764 52.4679 119.478C51.882 120.173 51.1406 120.714 50.2435 121.098C49.3464 121.482 48.3212 121.675 47.1678 121.675Z" fill="white"/>
<path d="M56.0213 121.208L61.4037 113.546V114.095L56.3508 106.681H58.6026L62.4472 112.393H62.8317L66.484 106.681H68.5985L63.8477 113.876V113.354L69.5047 121.208H67.2529L62.8042 115.029H62.4472L58.1358 121.208H56.0213Z" fill="white"/>
<path d="M77.476 121.208L84.8631 101.161H88.5978L96.232 121.208H94.09L86.9776 102.479L88.1035 103.056H85.2201L86.4009 102.479L79.5631 121.208H77.476ZM81.4304 114.837L82.117 112.942H91.4263L92.1403 114.837H81.4304Z" fill="white"/>
<path d="M104.941 121.373C103.934 121.373 103.065 121.226 102.332 120.933C101.6 120.64 101.032 120.146 100.63 119.45C100.227 118.736 100.026 117.784 100.026 116.594V102.095H102.003V116.896C102.003 117.739 102.232 118.388 102.689 118.846C103.147 119.286 103.797 119.505 104.639 119.505H107.248V121.373H104.941ZM97.4167 108.246V106.681H107.248V108.246H97.4167Z" fill="white"/>
<path d="M116.499 121.373C115.493 121.373 114.623 121.226 113.891 120.933C113.158 120.64 112.591 120.146 112.188 119.45C111.785 118.736 111.584 117.784 111.584 116.594V102.095H113.561V116.896C113.561 117.739 113.79 118.388 114.248 118.846C114.705 119.286 115.355 119.505 116.197 119.505H118.806V121.373H116.499ZM108.975 108.246V106.681H118.806V108.246H108.975Z" fill="white"/>
<path d="M123.554 121.208V106.681H125.586V121.208H123.554ZM121.22 108.329V106.681H125.586V108.329H121.22ZM123.994 103.99C123.499 103.99 123.124 103.861 122.868 103.605C122.63 103.331 122.511 102.992 122.511 102.589C122.511 102.186 122.63 101.857 122.868 101.601C123.124 101.326 123.499 101.189 123.994 101.189C124.488 101.189 124.854 101.326 125.092 101.601C125.33 101.857 125.449 102.186 125.449 102.589C125.449 102.992 125.33 103.331 125.092 103.605C124.854 103.861 124.488 103.99 123.994 103.99Z" fill="white"/>
<path d="M137.115 121.675C135.889 121.675 134.818 121.464 133.902 121.043C133.005 120.604 132.255 120.018 131.651 119.286C131.046 118.535 130.589 117.711 130.277 116.814C129.985 115.917 129.838 115.011 129.838 114.095V113.711C129.838 112.777 129.985 111.871 130.277 110.992C130.589 110.095 131.046 109.29 131.651 108.576C132.255 107.843 133.005 107.267 133.902 106.846C134.818 106.406 135.87 106.187 137.06 106.187C138.269 106.187 139.34 106.406 140.273 106.846C141.225 107.285 141.994 107.907 142.58 108.713C143.166 109.518 143.514 110.47 143.624 111.569H141.646C141.482 110.562 141.006 109.729 140.218 109.07C139.45 108.393 138.397 108.054 137.06 108.054C135.907 108.054 134.946 108.319 134.177 108.85C133.426 109.363 132.859 110.068 132.474 110.965C132.09 111.844 131.898 112.823 131.898 113.903C131.898 114.965 132.09 115.954 132.474 116.869C132.859 117.766 133.436 118.489 134.204 119.038C134.973 119.569 135.944 119.835 137.115 119.835C138.012 119.835 138.79 119.679 139.45 119.368C140.127 119.038 140.667 118.599 141.07 118.05C141.491 117.501 141.738 116.896 141.811 116.237H143.788C143.715 117.336 143.367 118.297 142.745 119.121C142.141 119.926 141.354 120.558 140.383 121.016C139.413 121.455 138.324 121.675 137.115 121.675Z" fill="white"/>
<path d="M152.151 121.62C150.283 121.62 148.846 121.217 147.839 120.411C146.832 119.588 146.32 118.489 146.302 117.116H148.224C148.26 117.812 148.572 118.443 149.157 119.011C149.762 119.578 150.759 119.862 152.151 119.862C153.451 119.862 154.421 119.597 155.062 119.066C155.721 118.517 156.05 117.858 156.05 117.089C156.05 116.375 155.776 115.825 155.226 115.441C154.695 115.038 153.917 114.782 152.892 114.672L151.245 114.507C149.926 114.361 148.855 113.958 148.032 113.299C147.226 112.622 146.823 111.697 146.823 110.525C146.823 109.665 147.043 108.914 147.482 108.274C147.922 107.633 148.535 107.139 149.322 106.791C150.128 106.425 151.071 106.241 152.151 106.241C153.707 106.241 154.97 106.608 155.94 107.34C156.929 108.072 157.432 109.116 157.451 110.47H155.528C155.51 109.775 155.217 109.189 154.65 108.713C154.082 108.237 153.249 107.999 152.151 107.999C151.016 107.999 150.164 108.246 149.597 108.74C149.048 109.235 148.773 109.839 148.773 110.553C148.773 111.157 148.984 111.66 149.405 112.063C149.826 112.448 150.485 112.686 151.382 112.777L153.03 112.942C154.494 113.107 155.684 113.528 156.599 114.205C157.533 114.883 158 115.853 158 117.116C158 117.977 157.753 118.755 157.259 119.45C156.783 120.128 156.105 120.659 155.226 121.043C154.348 121.428 153.322 121.62 152.151 121.62Z" fill="white"/>
</svg>
