<svg width="44" height="44" viewBox="0 0 44 44" fill="none" xmlns="http://www.w3.org/2000/svg">
<path d="M24.6481 25.6175C24.3222 25.0881 24.2006 25.0881 23.1392 25.0881C22.0779 25.0881 22.2315 25.0683 20.5905 25.0881C20.2572 25.0921 20.0507 25.3527 19.8935 25.6175C19.1396 26.8876 18.3757 28.1515 17.6257 29.4239C17.4214 29.7705 17.1784 29.9793 16.7474 29.9483C16.1434 29.9048 15.9128 29.5371 16.2221 29.0065C16.804 28.0076 17.4081 27.0221 18.0008 26.0297C18.6757 24.8994 19.3521 23.77 20.0198 22.6354C20.297 22.1644 20.2039 21.9789 19.6713 21.9768C18.1304 21.9707 16.5894 21.9887 15.0484 21.9845C14.7039 21.9836 14.542 22.1946 14.3859 22.4495C12.9947 24.7218 11.6002 26.9922 10.2087 29.2644C9.82204 29.8959 9.04288 30.1663 8.3693 29.8951C8.02982 29.7584 7.89599 29.4119 8.08867 29.0629C8.34456 28.5994 8.63245 28.154 8.90913 27.7024C11.5675 23.3635 14.2298 19.0271 16.8803 14.6833C17.1703 14.2081 17.5395 13.9991 18.092 14.0017C21.0945 14.0155 24.0972 14.0169 27.0996 14C27.6716 13.9968 28.0452 14.2035 28.3457 14.7007C29.0345 15.8408 29.7648 16.9553 30.4867 18.0745C30.5844 18.226 30.6323 18.4401 30.9118 18.4946C30.995 17.9463 30.941 17.404 30.9479 16.8665C30.9596 15.9424 31.0918 15.7968 31.9885 15.7882C32.3221 15.785 32.6558 15.7825 32.9894 15.7872C33.721 15.7975 33.8569 15.933 33.8577 16.6629C33.8601 18.9359 33.873 21.2091 33.8508 23.482C33.8454 24.04 33.9783 24.5038 34.2841 24.9677C35.1229 26.2403 35.9244 27.5382 36.7357 28.8293C36.8857 29.0681 37.1031 29.3022 36.9448 29.6232C36.7784 29.9606 36.4653 29.9411 36.1587 29.9409C33.458 29.9391 30.7572 29.9294 28.0566 29.9495C27.5493 29.9532 27.2279 29.7758 26.9702 29.3404C26.3572 28.3043 25.2976 26.6722 24.6481 25.6175ZM17.2288 17.8311C16.8378 18.4761 16.4387 19.1162 16.059 19.7679C15.8433 20.1381 15.9587 20.3806 16.3709 20.3852C17.8002 20.4012 19.2299 20.4021 20.6592 20.3874C21.1041 20.3829 21.2271 20.1421 20.9936 19.7544C20.3227 18.6409 19.6437 17.5322 18.95 16.4333C18.6672 15.9854 18.3634 16.0015 18.0696 16.4574C17.7917 16.8889 17.5336 17.3335 17.2288 17.8311ZM21.4584 23.9775C21.9003 23.985 22.44 23.9868 22.8817 23.9775C23.2759 23.9693 23.3858 23.7174 23.1892 23.3781C22.9733 23.0054 22.7483 22.6371 22.5081 22.2802C22.2062 21.8317 21.9499 21.8465 21.6491 22.316C21.4512 22.6249 21.2585 22.9374 21.0698 23.2521C20.9657 23.4257 20.7986 23.6027 20.9428 23.8199C21.072 24.0144 21.2805 23.9745 21.4584 23.9775Z" fill="white"/>
<circle cx="22" cy="22" r="21" stroke="white" stroke-width="2"/>
</svg>
