<svg width="41" height="37" viewBox="0 0 41 37" fill="none" xmlns="http://www.w3.org/2000/svg">
<path d="M13.8801 36.912C11.1601 36.912 8.79208 36.416 6.77608 35.424C4.79208 34.4 3.27208 33.024 2.21608 31.296C1.16008 29.568 0.63208 27.616 0.63208 25.44H8.21608C8.21608 26.912 8.71208 28.112 9.70408 29.04C10.6961 29.936 12.0881 30.384 13.8801 30.384C15.0641 30.384 16.0721 30.16 16.9041 29.712C17.7361 29.264 18.3761 28.656 18.8241 27.888C19.2721 27.088 19.4961 26.192 19.4961 25.2C19.4961 23.664 19.0001 22.4 18.0081 21.408C17.0481 20.416 15.6721 19.92 13.8801 19.92C12.9201 19.92 12.0721 20.064 11.3361 20.352C10.6321 20.64 10.0241 20.992 9.51208 21.408L5.96008 15.408L16.5681 8.49596L16.1361 7.67996H2.07208V0.959961H25.6881V8.25596L13.4481 16.032L9.60808 14.976C10.2481 14.784 10.9201 14.64 11.6241 14.544C12.3601 14.416 13.1441 14.352 13.9761 14.352C16.6961 14.352 19.0321 14.8 20.9841 15.696C22.9361 16.592 24.4401 17.856 25.4961 19.488C26.5841 21.088 27.1281 22.96 27.1281 25.104V25.68C27.1281 27.824 26.5841 29.744 25.4961 31.44C24.4401 33.136 22.9201 34.48 20.9361 35.472C18.9841 36.432 16.6321 36.912 13.8801 36.912Z" fill="#F26722"/>
<path d="M31.6322 36V27.408H40.0802V36H31.6322Z" fill="#F26722"/>
</svg>
