<svg width="40" height="37" viewBox="0 0 40 37" fill="none" xmlns="http://www.w3.org/2000/svg">
<path d="M0.879902 37.0001V29.8001C0.879902 28.2961 1.1199 26.9841 1.5999 25.8641C2.1119 24.7441 2.9119 23.7521 3.9999 22.8881C5.0879 21.9921 6.5279 21.1601 8.3199 20.3921L13.9839 17.9441C15.4239 17.3361 16.4799 16.5841 17.1519 15.6881C17.8559 14.7921 18.2079 13.6561 18.2079 12.2801C18.2079 10.8721 17.7759 9.72005 16.9119 8.82405C16.0479 7.92805 14.7839 7.48005 13.1199 7.48005C11.4559 7.48005 10.1919 7.94405 9.3279 8.87205C8.4639 9.80005 8.0319 11.0481 8.0319 12.6161H0.399902C0.399902 10.4081 0.879902 8.42405 1.8399 6.66405C2.7999 4.87205 4.2239 3.46405 6.1119 2.44005C7.9999 1.41605 10.3359 0.904053 13.1199 0.904053C15.9039 0.904053 18.2239 1.40005 20.0799 2.39205C21.9679 3.38405 23.3919 4.71205 24.3519 6.37605C25.3439 8.04005 25.8399 9.91205 25.8399 11.9921V12.5681C25.8399 15.2561 25.1039 17.4801 23.6319 19.2401C22.1599 20.9681 19.8879 22.5041 16.8159 23.8481L11.1999 26.2961C10.2399 26.7121 9.5519 27.1441 9.1359 27.5921C8.7519 28.0401 8.5599 28.6481 8.5599 29.4161V31.8161L6.6879 30.2321H25.8879V37.0001H0.879902Z" fill="#F26722"/>
<path d="M30.632 37.0001V28.4081H39.08V37.0001H30.632Z" fill="#F26722"/>
</svg>
