<svg width="190" height="180" viewBox="0 0 190 180" fill="none" xmlns="http://www.w3.org/2000/svg">
<path d="M25.4529 153.355C25.4528 125.285 25.4528 97.3631 25.4528 69.4948C24.8697 69.1635 24.6174 69.5577 24.332 69.787C22.1387 71.5494 19.9504 73.3181 17.7657 75.0913C15.1268 77.2331 11.6906 76.1996 10.8831 72.9801C10.4837 71.3875 11.0699 70.0587 12.3236 69.0573C21.383 61.821 30.3067 54.4218 39.1852 46.9662C44.2494 42.7136 49.4334 38.6033 54.5336 34.3928C60.8479 29.1802 67.1292 23.9279 73.4285 18.6972C77.5667 15.261 81.7228 11.8463 85.8488 8.39559C88.0998 6.513 89.9478 6.57057 92.1673 8.44382C99.107 14.301 106.086 20.1124 113.062 25.9261C122.387 33.6967 131.729 41.4456 141.053 49.2179C146.053 53.3869 151.028 57.587 156.017 61.7701C158.614 63.9471 158.7 66.9367 156.169 68.5807C154.703 69.5326 153.11 69.5713 151.736 68.5093C148.966 66.3677 146.285 64.1106 143.584 61.8803C136.923 56.3793 130.265 50.874 123.618 45.3561C118.605 41.1952 113.615 37.0077 108.608 32.8401C102.387 27.6615 96.1504 22.5006 89.9434 17.3047C89.2012 16.6834 88.7076 16.6515 87.9271 17.303C80.2382 23.7203 72.5166 30.0988 64.7956 36.4778C59.6601 40.7206 54.4926 44.9249 49.372 49.1854C44.2162 53.4751 39.1022 57.8148 33.9643 62.1258C33.5671 62.4591 33.2656 62.8152 33.267 63.3623C33.2762 66.8647 33.2808 70.367 33.2971 73.8693C33.2977 73.9989 33.4037 74.1279 33.5548 74.4712C35.1867 73.109 36.7541 71.8012 38.3208 70.4928C43.207 66.412 48.0916 62.3293 52.9795 58.2505C58.5879 53.5706 64.1953 48.8895 69.8103 44.2174C75.2334 39.7049 80.6533 35.1884 86.1001 30.7045C88.1213 29.0407 89.9262 29.1467 91.9654 30.854C99.834 37.4422 107.712 44.0196 115.588 50.5985C119.413 53.7935 123.246 56.9792 127.066 60.18C127.556 60.5905 128.015 61.0448 128.447 61.5164C129.893 63.0955 129.896 65.0475 128.478 66.7293C127.207 68.2381 125.045 68.6613 123.401 67.5215C121.825 66.4277 120.374 65.1486 118.896 63.9183C109.638 56.2151 100.322 48.5805 91.2122 40.701C88.9789 38.7691 88.9294 38.7475 86.6246 40.6691C79.3865 46.7036 72.1839 52.7804 64.9521 58.8224C59.8403 63.0932 54.7061 67.3374 49.5768 71.5872C44.4106 75.8676 39.246 80.1499 34.0595 84.4057C33.3018 85.0274 33.2381 85.7887 33.2381 86.652C33.2394 100.813 33.245 114.974 33.2162 129.135C33.1983 137.965 33.1452 146.794 33.0521 155.623C33.0393 156.839 33.4973 157.144 34.6143 157.127C37.8297 157.079 41.0462 157.113 44.2624 157.113C71.8221 157.112 99.3818 157.111 126.942 157.108C129.108 157.108 129.12 157.103 129.112 154.891C129.101 152.079 129.077 149.267 129.046 146.455C129.021 144.122 130.502 142.36 132.545 142.316C134.553 142.273 136.314 144.031 136.336 146.26C136.384 151.194 136.382 156.128 136.357 161.062C136.346 163.13 135.213 164.343 133.139 164.645C132.751 164.702 132.35 164.686 131.954 164.686C98.0117 164.686 64.0692 164.686 30.1267 164.68C26.7829 164.68 25.4591 163.345 25.451 160.015C25.4496 159.472 25.4515 158.93 25.4517 158.387C25.4522 156.759 25.4526 155.131 25.4529 153.355Z" fill="#F26722"/>
<path d="M82.5313 86.7651C85.1992 86.8211 87.7229 86.6375 90.2386 86.9375C92.7551 87.2375 94.4946 89.0432 94.4978 91.5864C94.5179 107.764 94.5222 123.942 94.4954 140.119C94.4905 143.106 92.3776 144.998 89.0208 145.1C86.7478 145.17 84.471 145.116 82.1959 145.116C72.7986 145.118 63.4013 145.12 54.004 145.12C49.435 145.121 47.4908 143.197 47.4895 138.669C47.4853 123.428 47.4828 108.188 47.4806 92.9472C47.48 88.647 49.3859 86.7552 53.746 86.7544C63.2916 86.7526 72.8372 86.7609 82.5313 86.7651ZM85.2791 137.575C86.5646 137.757 86.996 137.229 86.9918 135.921C86.9498 122.706 86.9473 109.49 86.9814 96.2752C86.9848 94.9571 86.6295 94.4761 85.2292 94.4846C75.8345 94.5416 66.4392 94.5401 57.0444 94.4921C55.68 94.4851 55.283 94.9035 55.2878 96.2617C55.335 109.427 55.337 122.594 55.2905 135.759C55.2855 137.162 55.66 137.617 57.1113 137.608C66.4071 137.547 75.7034 137.576 85.2791 137.575Z" fill="#F26722"/>
<path d="M72.7344 113.58C75.1583 113.582 77.434 113.561 79.7091 113.591C81.7239 113.617 82.889 114.761 82.9232 116.672C82.9539 118.389 81.6859 119.675 79.7792 119.687C74.0413 119.72 68.3028 119.726 62.565 119.683C60.6844 119.669 59.3594 118.303 59.2931 116.533C59.227 114.768 60.2789 113.604 62.0495 113.59C65.5615 113.563 69.0738 113.581 72.7344 113.58Z" fill="#F26722"/>
<path d="M77.177 108.159C72.2422 108.157 67.4542 108.168 62.6663 108.148C60.7182 108.139 59.3952 106.934 59.2913 105.16C59.18 103.26 60.2508 102.053 62.1738 102.045C67.9489 102.02 73.7242 102.017 79.4992 102.044C81.4483 102.053 82.5742 103.11 82.6297 104.825C82.6938 106.806 81.7049 107.946 79.6917 108.13C78.9081 108.202 78.1134 108.153 77.177 108.159Z" fill="#F26722"/>
<path d="M61.1136 131.312C59.8078 130.241 58.9591 129.092 59.5756 127.414C60.1463 125.86 61.164 125.236 63.1957 125.226C66.6546 125.209 70.1141 125.187 73.5723 125.236C75.3974 125.262 76.7812 126.521 76.9635 128.143C77.1591 129.884 76.3525 130.995 74.4384 131.586C74.0658 131.701 73.6716 131.811 73.2869 131.813C69.7787 131.827 66.2703 131.815 62.762 131.817C62.1986 131.818 61.6983 131.63 61.1136 131.312Z" fill="#F26722"/>
<ellipse cx="135.921" cy="107.056" rx="20.7332" ry="20.8333" stroke="#034956" stroke-width="7"/>
<path d="M150.712 122L167.712 139" stroke="#034956" stroke-width="7" stroke-linecap="round"/>
</svg>
