<svg width="172" height="163" viewBox="0 0 172 163" fill="none" xmlns="http://www.w3.org/2000/svg">
<path d="M20.0705 114.743C20.0704 98.6271 20.0704 82.6449 20.0704 66.3225C17.5822 68.3923 15.3248 70.2516 13.0886 72.1358C11.1118 73.8015 9.01254 73.7763 7.39077 72.0315C5.9462 70.4772 5.94389 68.5067 7.55791 67.1047C10.1223 64.8771 12.7784 62.7547 15.3945 60.5863C20.7276 56.1659 26.0596 51.7443 31.3925 47.3238C37.9309 41.9039 44.4718 36.487 51.0081 31.0646C59.5052 24.0158 68.0098 16.9759 76.4839 9.89981C78.0565 8.58672 79.6796 7.7313 81.7432 8.53238C82.9379 8.99619 83.7283 10.0367 84.6832 10.8267C91.8464 16.7536 98.9645 22.7348 106.106 28.688C111.943 33.5535 117.791 38.4054 123.636 43.2605C130.443 48.9137 137.265 54.5479 144.047 60.2311C145.181 61.1822 146.387 62.0914 146.349 63.9327C146.316 65.58 145.347 66.3532 144.165 67.0131C143.027 67.6489 141.829 67.5523 140.734 66.8205C140.225 66.4807 139.766 66.067 139.011 65.4716C139.011 72.2281 139.011 78.7071 139.011 85.2161C136.786 85.1448 134.808 84.7073 132.796 84.7995C132.078 84.8323 131.763 84.4002 131.904 83.7917C132.46 81.3879 130.924 80.2309 129.317 78.9056C118.87 70.2881 108.482 61.5985 98.0759 52.9313C92.3054 48.1251 86.5301 43.3247 80.7764 38.4987C80.0921 37.9247 79.6317 37.9595 78.9473 38.5376C72.2906 44.1601 65.6173 49.7633 58.9204 55.3382C52.4646 60.7122 45.9331 65.9965 39.5173 71.4173C35.8304 74.5324 32.1475 77.6513 28.4041 80.6984C27.5435 81.399 27.1873 82.1909 27.1895 83.3405C27.2242 101.122 27.2104 118.903 27.2077 136.685C27.2077 137.081 27.2077 137.477 27.2077 138.29C27.9274 137.218 28.4371 136.478 28.9279 135.725C35.2003 126.106 41.4685 116.483 47.7434 106.865C48.2063 106.156 48.2981 105.384 48.2968 104.564C48.2883 98.9344 48.3243 93.3048 48.2815 87.6759C48.2685 85.97 48.6835 84.5887 50.0214 83.3996C53.0613 80.6978 56.0031 77.8862 58.9796 75.1135C59.5017 74.6271 60.1012 74.4414 60.8125 74.4424C69.0533 74.4534 77.2941 74.4426 85.5348 74.4548C87.3231 74.4575 87.9709 75.1997 87.9719 77.1979C87.9777 88.5458 87.9677 99.8938 87.9797 111.242C87.9828 114.175 87.5854 113.88 90.621 113.895C90.8897 113.897 91.1585 113.893 91.4271 113.898C93.1157 113.933 94.1681 114.548 94.5543 115.721C94.9795 117.014 94.3897 118.857 93.0625 119.556C92.1043 120.061 92.0067 120.709 92.0107 121.612C92.035 127.018 92.0555 132.423 91.9991 137.828C91.9864 139.037 92.4142 139.463 93.5591 139.316C93.7793 139.287 94.0134 139.349 94.2293 139.308C97.3336 138.712 99.134 140.277 100.273 142.931C100.546 143.569 101.126 144.084 101.096 144.866C100.514 145.302 99.8658 145.11 99.2661 145.11C75.9322 145.118 52.5983 145.114 29.2644 145.112C27.2063 145.112 27.1846 145.113 27.2158 147.138C27.2671 150.472 26.717 150.07 30.1145 150.071C54.792 150.078 79.4695 150.081 104.147 150.045C105.577 150.042 106.645 150.376 107.722 151.397C109.737 153.303 112.093 154.799 114.516 156.166C114.894 156.379 115.355 156.483 115.609 157.014C115.168 157.311 114.669 157.193 114.213 157.193C84.3402 157.2 54.4674 157.202 24.5947 157.199C21.3184 157.199 20.0655 155.933 20.0659 152.672C20.0673 140.074 20.069 127.476 20.0705 114.743ZM31.559 68.341C36.2574 64.4167 40.9507 60.4863 45.6558 56.57C50.4994 52.5384 55.3623 48.53 60.2025 44.4946C65.9333 39.7167 71.6432 34.9139 77.375 30.1372C78.9383 28.8344 80.8331 28.7599 82.2985 29.9607C84.9951 32.1704 87.6572 34.4219 90.3325 36.6575C96.1593 41.5266 101.986 46.3955 107.811 51.2665C113.947 56.3969 120.075 61.5359 126.218 66.6573C128.006 68.1484 129.834 69.5925 131.86 71.2327C131.621 69.2908 131.732 67.6941 131.791 66.0929C131.855 64.355 131.781 62.6124 131.786 60.872C131.788 60.3004 131.63 59.8532 131.169 59.4704C127.388 56.3313 123.632 53.1618 119.846 50.0281C113.238 44.5578 106.607 39.1135 99.9973 33.6452C93.4887 28.2609 86.9866 22.8686 80.5031 17.4542C79.841 16.9012 79.4351 17.0994 78.9108 17.5912C78.0324 18.4152 77.1254 19.2114 76.1975 19.9796C71.4834 23.8822 66.7505 27.762 62.0399 31.6688C55.7114 36.9174 49.404 42.1915 43.0749 47.4395C38.1562 51.5179 33.2233 55.5794 28.283 59.6319C27.5377 60.2433 27.1789 60.9233 27.2 61.9261C27.261 64.8284 27.2141 67.7328 27.2328 70.6363C27.2351 70.9919 27.0421 71.428 27.484 71.7284C28.8021 70.6314 30.1064 69.546 31.559 68.341ZM69.4719 79.6096C67.6814 79.6088 65.8904 79.6358 64.1008 79.5964C63.0963 79.5743 62.6235 79.8995 62.6855 80.9867C62.7616 82.3219 62.7085 83.6648 62.7009 85.0043C62.6895 86.9984 61.7746 87.9254 59.7377 87.9566C58.1268 87.9813 56.5126 88.008 54.9044 87.9345C53.7218 87.8804 53.2617 88.221 53.2715 89.5064C53.3296 97.1415 53.3249 104.777 53.2768 112.413C53.2692 113.614 53.6723 113.927 54.8242 113.921C63.642 113.881 72.4603 113.868 81.2779 113.926C82.6576 113.935 83.0122 113.509 83.006 112.173C82.9576 101.77 82.9831 91.3656 82.9769 80.9617C82.9766 80.5331 83.1155 80.0634 82.6843 79.6094C78.4156 79.6094 74.0781 79.6094 69.4719 79.6096ZM86.9876 125.065C86.987 123.949 86.9007 122.825 87.0079 121.72C87.1391 120.365 86.5336 120.064 85.3059 120.063C75.5535 120.049 65.8009 120.006 56.0489 119.916C54.7758 119.904 54.3353 120.267 54.3501 121.572C54.412 127.017 54.4087 132.463 54.3548 137.908C54.3435 139.054 54.7414 139.336 55.8226 139.332C65.7109 139.3 75.5994 139.296 85.4876 139.335C86.6834 139.34 87.0222 138.939 87.0069 137.786C86.9519 133.636 86.9864 129.484 86.9876 125.065ZM44.5988 121.267C44.2104 121.936 43.6076 122.501 43.4714 123.524C44.4977 123.524 45.4163 123.525 46.3348 123.524C48.6649 123.519 49.0828 123.021 48.7265 120.709C48.678 120.394 48.6657 120.12 48.2958 119.972C47.153 119.518 45.3858 120.057 44.5988 121.267ZM45.157 128.757C42.0643 127.409 39.0447 128.532 38.5192 131.346C39.425 131.346 40.3294 131.222 41.1868 131.37C43.2769 131.73 44.4589 130.771 45.157 128.757ZM39.3525 138.08C39.5337 137.602 40.0105 137.235 39.9056 136.527C38.8336 136.527 37.7711 136.523 36.7087 136.527C34.6297 136.535 34.1116 136.94 33.3126 139.312C34.6857 139.312 36.0041 139.269 37.318 139.327C38.2273 139.367 38.881 139.096 39.3525 138.08ZM47.6818 134.861C46.7891 136.254 45.8964 137.647 44.8367 139.301C46.0687 139.301 46.9447 139.305 47.8207 139.299C48.2914 139.296 48.6122 139.055 48.6127 138.584C48.6144 137.05 48.9067 135.508 48.554 133.813C48.2284 134.188 48.0022 134.449 47.6818 134.861Z" fill="#F26722"/>
<path d="M127.952 88.0964C137.891 86.872 146.738 89.5667 154.399 95.9363C161.057 101.472 164.963 108.665 166.477 117.18C167.556 123.247 166.894 129.146 164.661 134.999C160.862 144.625 154.285 151.482 144.726 155.089C132.482 159.708 120.894 158.01 110.531 150.031C103.34 144.494 99.1699 137.005 97.9226 127.914C96.5056 117.585 98.8476 108.312 105.529 100.306C111.354 93.3266 118.882 89.2139 127.952 88.0964ZM133.685 94.8123C126.175 94.3088 119.462 96.6953 113.778 101.604C103.304 110.649 101.554 126.015 107.981 136.604C111.053 141.664 114.889 145.343 119.438 147.654C123.987 149.964 129.219 150.892 135.06 150.498C142.161 150.018 148.032 146.72 152.928 141.399L152.936 141.39C158.695 134.824 160.959 127.194 159.791 118.561C158.052 105.719 147.198 95.7183 133.685 94.8123Z" fill="#034956" stroke="#034956"/>
<path d="M78.8724 103.477C78.2841 104.537 77.4142 104.888 76.3607 104.888C70.9972 104.889 65.6338 104.898 60.2704 104.879C58.7089 104.873 57.6683 103.868 57.649 102.451C57.6267 100.824 58.4967 99.7638 60.1394 99.7482C65.6363 99.6959 71.1345 99.6842 76.631 99.7509C78.5669 99.7744 79.3988 101.228 78.8724 103.477Z" fill="#F26722"/>
<path d="M59.145 96.1259C57.9349 95.473 57.3669 94.5644 57.7465 93.314C58.1177 92.0909 59.0557 91.6163 60.3247 91.6204C65.7797 91.6378 71.2349 91.6142 76.6899 91.629C78.2445 91.6332 79.0867 92.4559 79.1008 93.8733C79.1147 95.2755 78.2477 96.2792 76.8031 96.2874C71.1249 96.3199 65.4462 96.2942 59.7677 96.2835C59.5941 96.2832 59.4206 96.21 59.145 96.1259Z" fill="#F26722"/>
<path d="M148.688 108.387C149.483 108.404 150.107 108.599 150.591 108.938C151.075 109.275 151.457 109.783 151.729 110.489C151.989 111.167 152.069 111.785 151.968 112.351C151.867 112.912 151.581 113.464 151.039 114.003C143.718 121.281 136.42 128.589 129.107 135.872C128.32 136.655 127.512 137.008 126.743 137.014C125.974 137.02 125.157 136.679 124.352 135.906C122.841 134.456 121.387 132.958 119.826 131.399H119.825C117.765 129.339 115.765 127.365 113.793 125.36C112.976 124.53 112.591 123.625 112.573 122.781C112.556 121.942 112.901 121.106 113.651 120.396C115.109 119.019 117.245 119.116 118.819 120.705C120.946 122.852 123.092 124.887 125.172 127.043C125.63 127.518 126.126 127.882 126.715 127.885C127.303 127.888 127.808 127.53 128.283 127.05C134.046 121.226 139.835 115.507 145.609 109.684C146.508 108.777 147.439 108.36 148.688 108.387Z" fill="#034956" stroke="#034956"/>
</svg>
