<svg width="170" height="161" viewBox="0 0 170 161" fill="none" xmlns="http://www.w3.org/2000/svg">
<g clip-path="url(#clip0_28_72)">
<path d="M143.814 74.0339C151.624 74.0332 158.182 76.8954 163.472 82.5974C166.504 85.8643 168.439 89.7314 169.352 94.1072C169.451 94.5791 169.597 95.0563 169.737 95.5681C169.766 105.866 169.764 116.072 169.764 126.402C169.004 130.398 167.783 134.042 165.398 137.173C160.225 143.963 153.523 147.78 144.866 147.861C143.046 147.878 141.243 147.912 139.441 147.865C138.366 147.837 137.475 148.177 136.676 148.811C132.279 152.299 127.891 155.773 123.494 159.26C122.825 159.791 122.151 160.134 121.474 160.257C120.806 160.378 120.102 160.292 119.349 159.916C118.666 159.574 118.214 159.12 117.931 158.578C117.645 158.03 117.515 157.358 117.534 156.562C117.562 155.342 117.556 154.121 117.55 152.91C117.544 151.696 117.539 150.49 117.572 149.287C117.587 148.727 117.503 148.228 117.192 147.826C116.885 147.43 116.423 147.214 115.888 147.063C108.972 145.106 103.543 141.223 100.074 134.881C97.942 130.982 96.8481 126.784 96.8347 122.337C96.8126 114.972 96.8218 107.606 96.8308 100.239C96.8467 87.3723 105.158 77.1389 117.809 74.4744C119.181 74.1855 120.622 74.0742 122.048 74.0652C129.302 74.0196 136.556 74.0346 143.814 74.0339ZM145.055 79.8054C137.186 79.935 129.32 79.8312 121.434 79.8279C120.48 79.8275 119.54 79.8995 118.589 80.0525C109.709 81.4794 102.396 89.9482 102.385 98.9119C102.376 107.294 102.385 115.677 102.394 124.058C102.395 124.596 102.42 125.165 102.525 125.724C103.72 132.062 107.21 136.783 112.94 140.082H112.941C115.472 141.528 118.328 141.831 120.962 142.312C121.817 142.469 122.14 142.622 122.301 142.814C122.463 143.008 122.554 143.352 122.569 144.211C122.603 146.149 122.598 148.079 122.614 150.028C122.618 150.532 122.616 151.236 123.18 151.857L123.479 152.186L123.841 151.927C124.199 151.671 124.56 151.433 124.879 151.18C128.128 148.601 131.399 146.034 134.623 143.411C135.545 142.66 136.496 142.329 137.704 142.316C141.144 142.279 144.772 142.502 148.237 141.931C157.839 140.35 164.562 132.098 164.563 122.428C164.564 115.017 164.56 107.606 164.568 100.195C164.57 98.9457 164.512 97.6959 164.304 96.4333C162.928 88.0492 154.951 79.6425 145.055 79.8054Z" fill="#034956" stroke="#034956"/>
<path d="M24.7936 147.492C24.7953 148.506 24.8242 149.389 24.7905 150.271C24.7597 151.074 25.1224 151.369 25.9012 151.366C30.151 151.351 34.4009 151.352 38.6507 151.363C39.4376 151.366 39.6869 151.019 39.7685 150.249C40.2502 145.708 40.818 141.175 41.304 136.634C41.7109 132.832 42.0251 129.021 42.4178 125.217C42.8146 121.373 43.2735 117.535 43.6751 113.691C43.9855 110.719 44.2313 107.741 44.5386 104.768C44.9317 100.967 45.3696 97.171 45.7659 93.3703C46.0804 90.3545 46.3414 87.3332 46.6622 84.3182C47.0804 80.3884 47.401 76.4415 48.0184 72.542C48.4517 69.8047 52.0093 68.6564 54.2163 70.3579C54.9578 70.9296 55.3282 71.6755 55.348 72.6367C55.3917 74.7568 55.1815 76.8549 54.8667 78.9433C54.6042 80.6847 54.789 80.9332 56.5956 80.9339C63.5459 80.9366 70.4963 80.9138 77.4463 80.9549C78.6007 80.9617 79.0528 80.7026 79.1138 79.4284C79.2291 77.0204 79.5792 74.6211 79.8901 72.2256C80.0925 70.6667 81.8566 69.4585 83.6531 69.5572C85.5544 69.6616 87.1312 71.1098 87.214 72.8298C87.3504 75.6612 86.8034 78.4419 86.5645 81.2446C86.3072 84.2642 85.9406 87.2745 85.6211 90.2887C85.2089 94.1771 84.794 98.0651 84.3844 101.954C83.9977 105.625 83.6258 109.298 83.23 112.968C82.8203 116.768 82.3847 120.565 81.9697 124.364C81.588 127.86 81.2198 131.356 80.8434 134.852C80.4201 138.784 79.9323 142.71 79.6014 146.649C79.4778 148.122 79.066 149.594 79.3041 151.087C80.0542 151.501 80.8214 151.358 81.5578 151.359C89.0393 151.373 96.5209 151.362 104.002 151.38C105.788 151.384 106.951 152.253 107.504 153.879C108.018 155.394 107.587 156.958 106.377 157.946C105.617 158.566 104.731 158.722 103.771 158.721C94.2086 158.708 84.6464 158.717 75.0842 158.706C72.5179 158.703 70.8395 156.727 71.1553 154.157C71.4928 151.41 71.8221 148.662 72.138 145.912C72.321 144.318 72.1661 144.151 70.5651 144.15C63.5263 144.148 56.4874 144.169 49.4488 144.131C48.3424 144.125 47.9391 144.402 47.8539 145.591C47.609 149.008 47.1909 152.413 46.8243 155.82C46.662 157.329 45.2405 158.69 43.6658 158.696C36.0074 158.725 28.3486 158.734 20.6903 158.689C18.7568 158.678 17.3426 157.17 17.1874 155.203C17.1494 154.72 17.1743 154.233 17.1743 153.747C17.1737 125.017 17.172 96.287 17.1787 67.5568C17.1789 66.4129 17.1237 65.2797 16.9007 64.0308C14.4392 65.8633 12.1692 67.8115 9.90928 69.7731C8.58281 70.9245 7.14119 71.4398 5.39859 70.6653C2.68771 69.4605 2.00088 66.2319 4.23104 64.2947C7.89904 61.1085 11.6882 58.0605 15.4365 54.9666C25.661 46.5273 35.8862 38.0886 46.1201 29.6605C56.285 21.2891 66.4599 12.9296 76.6327 4.56778C79.1307 2.51445 81.0488 2.50132 83.5084 4.51082C91.2765 10.8574 99.0681 17.1757 106.803 23.5621C114.913 30.2582 122.965 37.0246 131.049 43.7525C138.453 49.9148 145.868 56.0652 153.273 62.2262C153.884 62.7346 154.495 63.2518 155.047 63.8209C156.561 65.379 156.675 67.4113 155.376 68.9629C154.175 70.3973 151.98 70.7695 150.336 69.6275C148.598 68.4194 146.954 67.0689 145.318 65.7215C131.674 54.4843 118.031 43.2456 104.408 31.9822C96.643 25.5621 88.96 19.0438 81.0804 12.7611C80.2701 12.115 79.8155 12.1928 79.0744 12.8059C69.6766 20.5797 60.2441 28.3118 50.8386 36.0765C43.5794 42.0693 36.4036 48.1627 29.0232 54.009C28.0186 54.8048 27.0653 55.6744 26.0064 56.3894C25.0546 57.032 24.7424 57.8011 24.7675 58.9364C24.8414 62.2809 24.7939 65.6281 24.7939 69.21C26.4814 68.258 27.701 67.0563 29.0038 65.9949C36.6096 59.7984 44.1823 53.5613 51.7543 47.3235C60.1789 40.3834 68.5872 33.4235 77.0105 26.4818C79.2977 24.5969 81.0604 24.5243 83.4524 26.4402C86.6937 29.0363 89.8209 31.7734 93.0182 34.4246C101.829 41.7309 110.659 49.0158 119.465 56.3281C121.64 58.134 123.813 59.9495 125.883 61.8714C128.878 64.652 126.782 67.7482 124.342 68.3193C122.947 68.6458 121.711 68.196 120.638 67.3162C116.026 63.5325 111.426 59.734 106.822 55.9408C98.1258 48.7757 89.4294 41.6105 80.7313 34.4473C80.5982 34.3376 80.4435 34.2538 80.1753 34.076C78.0012 35.8462 75.8096 37.6148 73.6349 39.4038C64.1479 47.2083 54.6532 55.0035 45.1862 62.8321C38.7149 68.1835 32.18 73.4559 25.5818 78.6502C24.8421 79.2325 24.7875 79.9477 24.7882 80.7632C24.7962 90.0751 24.7931 99.3871 24.7931 108.699C24.7932 121.586 24.7934 134.473 24.7936 147.492ZM77.2415 96.3047C77.5425 93.6139 77.8435 90.923 78.137 88.2993C77.4278 87.8862 76.8396 88.0202 76.2797 88.0193C69.7356 88.0084 63.1914 88.012 56.6473 88.0132C55.9841 88.0133 55.3208 88.0167 54.6578 88.0292C54.1786 88.0382 53.8059 88.1482 53.7524 88.7486C53.4413 92.239 53.1092 95.7276 52.7904 99.1505C53.3583 99.6174 53.9119 99.4608 54.4236 99.4617C61.012 99.4733 67.6003 99.4705 74.1887 99.4696C77.1566 99.4691 77.1566 99.4672 77.2415 96.3047ZM66.8046 125.505C61.766 125.502 56.7273 125.519 51.689 125.478C50.5894 125.469 49.991 125.742 49.8842 126.96C49.639 129.756 49.2999 132.545 48.9633 135.332C48.811 136.594 49.5518 136.665 50.5014 136.663C57.1754 136.648 63.8493 136.659 70.5233 136.657C71.3152 136.657 72.2343 136.871 72.8669 136.545C73.6578 136.139 73.0501 135.089 73.2642 134.352C73.3009 134.225 73.3353 134.096 73.3481 133.965C73.6163 131.222 73.8813 128.48 74.1606 125.595C71.7148 125.261 69.3849 125.62 66.8046 125.505ZM57.5078 107.048C56.0038 107.047 54.4992 107.07 52.996 107.034C52.2183 107.016 51.9266 107.292 51.8626 108.095C51.6499 110.765 51.3383 113.426 51.0855 116.093C50.9083 117.963 50.9303 117.995 52.8193 117.997C59.5432 118.006 66.2671 118 72.991 117.994C74.8111 117.992 74.8958 117.87 75.0842 116.093C75.3387 113.693 75.6101 111.293 75.9546 108.904C76.2162 107.09 76.2447 107.056 74.3621 107.054C68.8325 107.048 63.303 107.05 57.5078 107.048Z" fill="#F26722"/>
<path d="M131.357 86.5693C132.587 85.3697 134.097 85.4346 135.728 85.876C139.29 86.8402 140.927 89.6204 141.96 93.0322C142.777 95.7294 142.274 98.4323 141.61 101.229C141.509 101.653 141.292 102.25 141.531 103.06L141.636 103.418H145.658C147.398 103.418 149.212 103.495 150.994 103.404C153.226 103.291 154.941 104.36 155.987 105.884C157.043 107.422 157.398 109.396 156.917 111.029C156.336 112.999 156.314 114.783 156.711 116.749C157.078 118.564 156.177 120.186 154.895 121.862C154.556 122.188 154.416 122.548 154.384 122.909C154.356 123.235 154.421 123.592 154.443 123.793C154.709 126.256 154.031 128.258 151.993 129.693C151.439 130.083 151.261 130.618 151.135 131.062C150.675 132.685 150.106 133.77 149.295 134.469C148.495 135.159 147.391 135.53 145.735 135.574C140.943 135.703 136.209 135.999 131.494 135.437C128.423 135.07 125.675 133.71 122.757 132.466C121.824 132.068 120.987 132.046 120.037 132.252C117.363 132.833 114.665 132.517 111.827 132.452C111.151 132.437 110.592 131.902 110.403 131.056C110.249 130.365 110.165 129.644 110.163 128.938C110.135 122.232 110.133 115.526 110.126 108.819C110.125 107.483 110.374 106.711 110.825 106.256C111.275 105.801 112.041 105.548 113.371 105.543C114.919 105.537 116.464 105.543 118.016 105.542C118.455 105.542 118.87 105.656 119.321 105.841C119.802 106.038 120.219 106.266 120.794 106.527L121.147 106.687L121.39 106.387C123.101 104.27 124.627 102.115 126.446 100.191C129.403 97.0642 129.76 93.1223 130.303 89.4326C130.475 88.266 130.611 87.2974 131.357 86.5693ZM134.847 93.1221C134.717 94.9783 134.315 96.7258 133.49 98.3848C131.151 103.084 127.56 106.813 123.908 110.606C123.276 111.263 122.817 111.947 122.829 113.018C122.872 117.115 122.873 121.214 122.833 125.312C122.828 125.805 122.911 126.245 123.137 126.634C123.363 127.022 123.702 127.309 124.122 127.545C126.184 128.708 128.37 129.78 130.798 130.146C132.992 130.475 135.187 130.509 137.359 130.478C139.544 130.446 141.684 130.349 143.833 130.407C144.077 130.414 144.308 130.376 144.512 130.275C144.722 130.172 144.876 130.016 144.979 129.834C145.17 129.497 145.177 129.093 145.16 128.791C145.109 127.895 145.264 127.116 145.965 126.315C146.431 125.93 146.888 125.688 147.419 125.661C147.578 125.653 147.873 125.653 148.13 125.574C148.436 125.481 148.722 125.275 148.874 124.883C148.961 124.656 148.994 124.418 148.925 124.184C148.857 123.951 148.709 123.794 148.58 123.692C148.458 123.596 148.317 123.523 148.232 123.477C148.127 123.419 148.08 123.39 148.052 123.366C146.642 122.152 146.814 120.181 148.367 119.259C148.569 119.139 148.787 119.086 149.047 119.062C149.18 119.049 149.317 119.045 149.469 119.041C149.617 119.037 149.784 119.035 149.95 119.023C150.306 118.999 150.632 118.879 150.876 118.626C151.116 118.378 151.223 118.057 151.257 117.734C151.292 117.409 151.238 117.099 151.025 116.839C150.836 116.608 150.567 116.476 150.333 116.379C149.505 116.037 149.11 115.754 148.898 115.434C148.689 115.117 148.601 114.678 148.624 113.867C148.642 113.209 148.827 112.736 149.121 112.393C149.418 112.045 149.867 111.784 150.495 111.624C150.81 111.544 151.122 111.413 151.366 111.175C151.62 110.927 151.757 110.605 151.796 110.231C151.858 109.648 151.789 109.084 151.411 108.677C151.035 108.272 150.472 108.15 149.863 108.157C145.865 108.207 142.019 108.564 138.084 108.429C137.249 108.4 136.59 108.117 136.132 107.669C135.676 107.221 135.384 106.573 135.347 105.743C135.308 104.859 135.583 104.032 135.9 103.101C136.719 100.697 137.373 98.2007 137.211 95.5518C137.172 94.9061 137.043 94.3633 136.772 93.8916C136.5 93.4184 136.11 93.0578 135.619 92.7383L134.907 92.2754L134.847 93.1221ZM116.85 110.869C116.497 110.799 116.079 110.817 115.765 111.137C115.484 111.424 115.401 111.847 115.388 112.271L115.387 112.278V112.286C115.387 116.647 115.383 121.01 115.39 125.372C115.39 125.423 115.389 125.475 115.387 125.539C115.386 125.6 115.385 125.67 115.386 125.74C115.388 125.877 115.399 126.053 115.455 126.227C115.513 126.41 115.624 126.602 115.826 126.744C116.021 126.882 116.256 126.941 116.503 126.95C116.757 126.96 116.998 126.923 117.208 126.812C117.427 126.698 117.571 126.525 117.661 126.337C117.778 126.089 117.803 125.798 117.808 125.566L117.81 125.358C117.812 124.125 117.813 122.891 117.813 121.657C117.813 118.574 117.813 115.489 117.808 112.404C117.808 112.23 117.824 111.891 117.726 111.602C117.671 111.439 117.577 111.271 117.417 111.133C117.259 110.996 117.065 110.912 116.85 110.869Z" fill="#034956" stroke="#034956"/>
</g>
<defs>
<clipPath id="clip0_28_72">
<rect width="170" height="161" fill="white"/>
</clipPath>
</defs>
</svg>
