<svg width="128" height="128" viewBox="0 0 128 128" fill="none" xmlns="http://www.w3.org/2000/svg">
<g clip-path="url(#clip0_64_119)">
<circle cx="64" cy="64" r="64" fill="#181717"/>
<circle cx="63.9998" cy="64" r="59.5091" fill="#F26722" stroke="white" stroke-width="2"/>
<path d="M71.2834 73.9496C70.3869 72.4935 70.0525 72.4935 67.1333 72.4935C64.2141 72.4935 64.6366 72.4391 60.1233 72.4935C59.2065 72.5046 58.6386 73.2213 58.2062 73.9496C56.1328 77.4429 54.0316 80.9192 51.9688 84.4189C51.4068 85.3722 50.7384 85.9463 49.553 85.861C47.8918 85.7414 47.2577 84.7303 48.1082 83.2707C49.7089 80.5235 51.3704 77.8129 53.0004 75.0832C54.8567 71.9746 56.7171 68.8682 58.5537 65.7476C59.316 64.4523 59.06 63.9418 57.595 63.9361C53.3568 63.9194 49.1184 63.969 44.8802 63.9574C43.9326 63.9548 43.4873 64.5352 43.058 65.2362C39.2315 71.4861 35.3962 77.7305 31.5691 83.9801C30.5055 85.7169 28.3625 86.4608 26.5099 85.7149C25.5762 85.3389 25.2081 84.3857 25.738 83.4258C26.4418 82.151 27.2336 80.9259 27.9946 79.6839C35.3062 67.7502 42.6287 55.8233 49.9186 43.876C50.7162 42.5689 51.7318 41.9944 53.2514 42.0014C61.5095 42.0393 69.768 42.0433 78.026 41.9968C79.5992 41.988 80.6268 42.5564 81.4531 43.924C83.3477 47.0597 85.3563 50.1249 87.3419 53.2033C87.6106 53.6199 87.7424 54.2087 88.511 54.3587C88.7399 52.8506 88.5914 51.359 88.6103 49.8808C88.6426 47.339 89.006 46.9386 91.4725 46.9149C92.39 46.9061 93.3078 46.8992 94.2252 46.9122C96.2375 46.9405 96.6113 47.3133 96.6134 49.3207C96.6202 55.5725 96.6555 61.8248 96.5946 68.0761C96.5797 69.6109 96.9452 70.8864 97.7864 72.1625C100.093 75.6625 102.298 79.2323 104.529 82.7835C104.942 83.4402 105.54 84.084 105.104 84.967C104.647 85.895 103.786 85.8412 102.942 85.8407C95.5141 85.8359 88.0858 85.8091 80.6582 85.8643C79.2627 85.8747 78.3788 85.3868 77.6701 84.1891C75.9841 81.3394 73.0696 76.8506 71.2834 73.9496ZM50.8771 52.5337C49.8017 54.3077 48.7039 56.0683 47.6596 57.8609C47.0665 58.8789 47.384 59.546 48.5175 59.5587C52.4487 59.6027 56.381 59.605 60.3122 59.5648C61.5357 59.5522 61.8742 58.8901 61.2318 57.8237C59.3867 54.7611 57.5192 51.7117 55.6111 48.6893C54.8334 47.4574 53.9976 47.5016 53.1898 48.7557C52.4254 49.9424 51.7154 51.1652 50.8771 52.5337ZM62.5103 69.439C63.7258 69.4595 65.2102 69.4644 66.425 69.439C67.5093 69.4164 67.8115 68.7237 67.2708 67.7904C66.677 66.7653 66.0581 65.7522 65.3973 64.7706C64.5671 63.5372 63.862 63.5779 63.0349 64.8692C62.4906 65.7188 61.9605 66.5781 61.4414 67.4439C61.1553 67.9212 60.6957 68.4082 61.0922 69.0054C61.4476 69.5405 62.021 69.4308 62.5103 69.439Z" fill="white"/>
</g>
<defs>
<clipPath id="clip0_64_119">
<rect width="128" height="128" fill="white"/>
</clipPath>
</defs>
</svg>
